<?xml version="1.0" encoding="utf-8"?>
<!-- Generator: Adobe Illustrator 26.0.0, SVG Export Plug-In . SVG Version: 6.00 Build 0)  -->
<svg version="1.1" id="Layer_1" xmlns="http://www.w3.org/2000/svg" xmlns:xlink="http://www.w3.org/1999/xlink" x="0px" y="0px"
	 viewBox="0 0 735 735" style="enable-background:new 0 0 735 735;" xml:space="preserve">
<style type="text/css">
	.st0{fill:none;stroke:#AAAAAA;stroke-width:43;stroke-linecap:round;stroke-linejoin:round;stroke-miterlimit:133.3333;}
	.st1{fill:#444444;}
</style>
<path class="st0" d="M184.5,139.4l60.6,60.6 M548.3,503.2l-23.3-23.8 M320.8,161c1.9-0.5,3.9-0.9,5.9-1.1c2.3-0.3,4.8-0.3,9.7-0.3
	h61c5,0,7.5,0,9.7,0.3c12,1.4,22.7,8,29.3,18.1c1.3,1.9,2.4,4.2,4.6,8.6c1.1,2.2,1.7,3.3,2.3,4.3c3.3,5,8.7,8.4,14.6,9
	c1.1,0.1,2.4,0.1,4.9,0.1h21.3c22.6,0,34,0,42.6,4.4c7.6,3.9,13.8,10.1,17.7,17.7c4.4,8.6,4.4,20,4.4,42.6V389 M524.9,479.4
	c-8.4,3.6-19.7,3.6-40.9,3.6H249.7c-22.6,0-34,0-42.6-4.4c-7.6-3.9-13.8-10.1-17.7-17.7c-4.4-8.6-4.4-20-4.4-42.6V264.7
	c0-22.6,0-34,4.4-42.6c3.9-7.6,10.1-13.8,17.7-17.7c8.1-4.1,18.4-4.4,38.1-4.4 M524.9,479.4L418.2,373.1 M418.2,373.1
	c-10.6,17.4-29.9,29.1-51.8,29.1c-33.5,0-60.6-27.1-60.6-60.6c0-21.9,11.6-41.1,29.1-51.8 M418.2,373.1l-83.3-83.3 M334.8,289.7
	l-89.7-89.7"/>
<g>
	<path class="st1" d="M207.1,597.2v-2.9c6-0.6,6.7-1.4,6.7-8.4v-17.2c0-7.3-2.6-12.2-9.5-12.2c-4.3,0-8.3,2.5-11.6,5.4v24.4
		c0,7.2,0.6,7.4,6.8,8v2.9H177v-2.9c6.9-0.7,7.5-1.1,7.5-8v-21.4c0-6.8-0.7-7.1-6.4-8v-2.7c5.1-0.8,10.2-2.2,14.6-4.2
		c0,2.4,0,5.7,0,8.2c2.1-1.5,4.4-3,7.1-4.8c2.9-1.9,5.6-3.1,8.6-3.1c8.3,0,13.5,6.1,13.5,16.2v19.8c0,7.1,0.6,7.4,6.7,8v2.9H207.1z"
		/>
	<path class="st1" d="M258,550.2c13,0,22.7,9.9,22.7,23.3c0,16.9-12.5,24.9-22.7,24.9c-14.4,0-23.1-11.6-23.1-23.2
		C234.9,558.2,248.1,550.2,258,550.2z M256.8,553.8c-6.4,0-12.1,6.1-12.1,18.2c0,13.2,5.8,22.8,14.4,22.8c6.5,0,11.9-4.7,11.9-18.9
		C270.9,563.7,265.9,553.8,256.8,553.8z"/>
	<path class="st1" d="M312.3,597.2v-2.9c6.6-0.6,7.3-1.1,7.3-8.2v-21.4c0-6.5-0.3-6.9-6.6-7.9v-2.5c5.4-0.9,10.3-2.3,14.8-4.2
		c0,4.4,0,8.7,0,13.1V586c0,7.1,0.7,7.6,7.5,8.2v2.9H312.3z M323.1,539.8c-2.9,0-5.5-2.6-5.5-5.5c0-3.3,2.6-5.7,5.6-5.7
		c2.9,0,5.3,2.4,5.3,5.7C328.5,537.2,326.1,539.8,323.1,539.8z"/>
	<path class="st1" d="M397.7,597.2v-2.9c6.1-0.6,6.9-1,6.9-8.3v-17.4c0-7.4-2.5-12.1-9-12.1c-4,0-7.6,2.2-11.6,5.4
		c0.1,1.2,0.3,2.5,0.3,4.5v20.2c0,6.6,0.9,7.1,6.7,7.7v2.9h-22.3v-2.9c6.5-0.6,7.4-1,7.4-7.9v-17.9c0-7.7-2.4-12-8.7-12
		c-4.2,0-8.2,2.8-11.5,5.4v24.5c0,6.9,0.7,7.3,6.7,7.9v2.9h-22.4v-2.9c6.9-0.6,7.5-1,7.5-7.9v-21.6c0-6.7-0.4-7.1-6.2-8.1v-2.6
		c4.9-0.7,9.8-2.1,14.5-4.2c0,2.5,0,5.9,0,8.4c2.2-1.7,4.4-3.4,7.7-5.4c2.6-1.7,4.9-2.7,8.2-2.7c5,0,9.3,3.1,11.3,8.5
		c2.9-2.3,5.6-4.1,8.2-5.8c2.3-1.5,5.2-2.7,8.2-2.7c8.1,0,13.1,5.8,13.1,16v20.1c0,7,0.6,7.3,6.6,7.9v2.9H397.7z"/>
	<path class="st1" d="M459.1,598.4c-1.6,0-3.9-0.8-4.9-2c-1.4-1.4-2-2.8-2.5-4.7c-4.2,2.8-9.3,6.7-12.5,6.7
		c-7.4,0-12.7-6.1-12.7-12.8c0-5.1,2.8-8.4,8.5-10.4c6.4-2.2,14.2-4.9,16.4-6.8v-2.1c0-7.4-3.7-11.7-9.2-11.7
		c-2.4,0-3.9,1.1-4.9,2.4c-1.1,1.5-1.9,3.7-2.8,6.8c-0.5,1.7-1.5,2.4-3,2.4c-2,0-4.6-2.1-4.6-4.6c0-1.5,1.4-2.7,3.4-4.2
		c3-2.2,9.1-6,15-7.3c3.1,0,6.4,0.9,8.7,2.8c3.6,3.1,5.3,6.7,5.3,12.1v20.1c0,4.8,1.8,6.2,3.6,6.2c1.2,0,2.6-0.5,3.7-1.1l1,2.9
		L459.1,598.4z M451.5,572.1c-2.3,1.1-7.3,3.3-9.7,4.4c-4,1.8-6.4,3.7-6.4,7.6c0,5.5,4.2,8,7.5,8c2.7,0,6.5-1.7,8.5-3.7
		C451.5,583.4,451.5,577,451.5,572.1z"/>
	<path class="st1" d="M486,582c-2.5,2-3.4,4-3.4,5.2c0,1.9,1.8,4,6.5,4c3.9,0,8.2-0.1,11.7-0.1c6.7,0,15.2,2.2,15.2,12.5
		c0,10.8-12.8,21-26.7,21c-11.8,0-18.1-6.9-18.3-13c0-2.3,0.9-4.3,2.6-5.9c2.1-2.2,6.1-5.6,8.5-7.5c-3.7-1-6.5-3.4-7.8-5.6
		c-0.9-1.6-1.2-3.4-1.2-4.5c4-1.5,7.5-4.4,9.6-7.2L486,582z M491,583c-9.7,0-17.7-5.9-17.7-15.7c0-11.9,10.6-17.4,18.7-17.4
		c3.4,0,6.9,0.9,10,2.6c4.8,0,11-0.8,14-1.6l0.6,0.9c-0.6,1.7-2.3,4.6-3.9,5.5c-1.6,0-5-0.4-6.5-0.5c1.8,2.4,3,5.7,3,9.5
		C509.4,577.7,500,583,491,583z M493.4,598.4c-5.1,0-7.4,0.6-9.3,2.2c-2.9,2.4-5,5.5-5,8.5c0,5.7,5.9,10,14,10
		c9.9,0,15.5-5.1,15.5-11.8c0-3.5-1.7-6.4-4.6-7.6C501.4,598.6,497.8,598.4,493.4,598.4z M491,553.3c-4.7,0-8.8,4.3-8.8,12.5
		c0,8.2,4.2,14,9.9,14c4.6-0.2,8.6-4.1,8.6-12.5C500.7,559.1,496.9,553.3,491,553.3z"/>
	<path class="st1" d="M557.5,588.3c-6.7,8.3-14,10.1-17.3,10.1c-12.7,0-20.4-10.4-20.4-22.4c0-7.1,2.5-13.6,6.8-18.2
		c4.4-4.9,10.1-7.6,15.5-7.6c9.1,0,15.9,7.8,15.9,16.1c-0.1,2.1-0.4,3-2.1,3.4c-2.1,0.4-15.4,1.4-27.8,1.8
		c-0.3,14,8.2,19.7,15.6,19.7c4.3,0,8.2-1.8,12.1-5.3L557.5,588.3z M539.5,554.2c-4.8,0-9.5,4.5-10.9,12.9c5.8,0,11.7,0,17.8-0.3
		c1.9,0,2.5-0.5,2.5-2.1C549,559.2,545.4,554.2,539.5,554.2z"/>
</g>
</svg>
